<svg width="35" height="35" viewBox="0 0 35 35" fill="none" xmlns="http://www.w3.org/2000/svg">
<circle cx="17.5" cy="17.5" r="16.75" fill="#FF0000" stroke="#F7FDF8" stroke-width="1.5"/>
<g clip-path="url(#clip0_738_1459)">
<path d="M26.4845 11.4589C26.3805 10.9521 26.1688 10.4878 25.8708 10.1129C25.5727 9.73797 25.1989 9.46564 24.787 9.32344C23.282 8.875 17.262 8.875 17.262 8.875C17.262 8.875 11.242 8.875 9.73697 9.36615C9.32507 9.50835 8.9512 9.78067 8.65315 10.1556C8.3551 10.5306 8.14341 10.9948 8.03947 11.5016C7.76404 13.3653 7.62931 15.256 7.63697 17.1497C7.62716 19.0578 7.7619 20.9628 8.03947 22.8406C8.15406 23.3316 8.37049 23.7782 8.66785 24.1373C8.96521 24.4964 9.33344 24.7559 9.73697 24.8906C11.242 25.3818 17.262 25.3818 17.262 25.3818C17.262 25.3818 23.282 25.3818 24.787 24.8906C25.1989 24.7484 25.5727 24.4761 25.8708 24.1012C26.1688 23.7262 26.3805 23.2619 26.4845 22.7552C26.7578 20.9055 26.8925 19.0293 26.887 17.1497C26.8968 15.2417 26.7621 13.3366 26.4845 11.4589V11.4589Z" stroke="#F7FDF8" stroke-width="1.5" stroke-linecap="round" stroke-linejoin="round"/>
<path d="M15.293 20.6411L20.3242 17.1497L15.293 13.6583V20.6411Z" fill="#F7FDF8" stroke="#F7FDF8" stroke-linecap="round" stroke-linejoin="round"/>
</g>
<defs>
<clipPath id="clip0_738_1459">
<rect width="21" height="20" fill="white" transform="translate(7 7)"/>
</clipPath>
</defs>
</svg>
